<?xml version="1.0" standalone="no"?>
<!DOCTYPE svg PUBLIC "-//W3C//DTD SVG 20010904//EN"
 "http://www.w3.org/TR/2001/REC-SVG-20010904/DTD/svg10.dtd">
<svg version="1.0" xmlns="http://www.w3.org/2000/svg"
 width="300.000000pt" height="300.000000pt" viewBox="0 0 300.000000 300.000000"
 preserveAspectRatio="xMidYMid meet">
<metadata>
Created by potrace 1.11, written by Peter Selinger 2001-2013
</metadata>
<g transform="translate(0.000000,300.000000) scale(0.100000,-0.100000)"
fill="#000000" stroke="none">
<path d="M219 2981 c-22 -17 -24 -29 -29 -127 l-5 -107 -47 -1 c-37 -1 -53 -7
-73 -27 l-26 -26 0 -821 c-1 -452 2 -829 5 -839 3 -10 18 -26 33 -35 25 -14
167 -15 1438 -13 776 1 1413 2 1417 3 4 1 16 12 28 24 20 22 20 29 20 980 l0
959 -25 24 -24 25 -1009 0 -1009 0 -24 -26 c-22 -23 -24 -33 -24 -125 1 -105
3 -101 -50 -101 -40 0 -40 0 -38 94 1 92 -6 122 -36 145 -12 9 -83 12 -257 13
-223 0 -244 -1 -265 -19z m401 -191 l0 -45 -123 1 c-67 1 -128 2 -134 3 -8 1
-13 17 -13 45 l0 44 135 -1 135 -1 0 -46z m2200 -142 l0 -188 -22 0 c-591 -2
-2592 1 -2596 4 -4 5 -5 52 -3 97 1 14 43 15 386 15 l386 0 25 26 c24 24 26
33 29 129 1 57 3 104 4 105 0 0 404 0 896 0 l895 0 0 -188z m-1721 -357 c3 0
-7 -13 -21 -28 -42 -47 -84 -115 -111 -183 -95 -241 -33 -514 158 -688 59 -54
195 -127 255 -137 214 -36 392 17 535 160 222 221 241 575 46 823 -23 28 -41
53 -41 54 0 2 203 3 450 3 l450 0 0 -572 0 -573 -32 0 c-391 -3 -2582 0 -2585
4 -5 4 -8 1047 -4 1126 1 13 57 15 448 14 247 -1 450 -2 452 -3z m579 -36
c151 -69 248 -214 256 -382 12 -257 -183 -467 -432 -465 -112 1 -200 40 -288
127 -172 170 -177 434 -12 619 57 65 165 123 243 132 28 4 51 7 53 9 9 8 136
-20 180 -40z"/>
<path d="M2321 2750 c-70 -7 -91 -32 -91 -107 0 -44 5 -58 25 -78 24 -25 26
-25 205 -25 101 0 190 4 200 10 34 18 49 106 26 161 -14 32 -52 41 -182 43
-71 0 -153 -1 -183 -4z"/>
<path d="M1401 2148 c-67 -25 -137 -93 -170 -163 -34 -72 -37 -181 -8 -252 33
-78 87 -137 160 -172 54 -26 71 -30 137 -27 179 6 306 152 294 339 -13 209
-222 347 -413 275z m195 -173 c34 -22 65 -95 59 -139 -15 -119 -141 -180 -231
-111 -91 70 -79 211 23 264 29 14 45 16 81 9 25 -4 56 -15 68 -23z"/>
<path d="M352 827 c-18 -6 -41 -22 -51 -36 -30 -43 -301 -688 -301 -716 0 -36
42 -75 80 -75 43 0 71 32 105 118 l28 72 175 -2 175 -3 27 -68 c34 -84 59
-112 104 -115 38 -3 72 24 83 66 4 16 -37 123 -138 362 -79 187 -153 351 -164
365 -24 31 -78 45 -123 32z m98 -366 c22 -57 39 -105 37 -108 -3 -2 -49 -2
-105 -1 l-100 3 51 128 c58 147 48 149 117 -22z"/>
<path d="M1133 820 c-53 -22 -54 -31 -54 -403 -1 -292 2 -349 15 -375 8 -16
23 -32 31 -36 47 -18 101 5 114 48 6 17 10 118 10 224 0 107 1 195 3 197 2 2
37 -50 78 -116 87 -142 107 -161 153 -148 17 5 33 9 33 9 4 0 74 108 123 189
l51 84 0 -154 c1 -285 1 -288 33 -315 46 -39 104 -29 130 24 19 37 18 706 -1
739 -24 44 -116 53 -153 16 -10 -10 -65 -98 -123 -196 l-104 -178 -103 173
c-56 95 -112 184 -124 196 -24 26 -78 36 -112 22z"/>
<path d="M2259 822 c-23 -2 -45 -12 -60 -28 l-24 -26 -2 -344 c-1 -226 2 -353
9 -369 20 -44 43 -48 289 -49 161 -1 241 3 261 11 50 21 59 86 18 128 -19 19
-32 20 -216 20 l-195 0 3 85 3 85 163 2 c155 1 165 2 188 24 29 28 31 74 4
109 -19 25 -21 25 -177 27 -87 1 -164 2 -170 2 -9 1 -13 24 -13 81 l0 80 28 1
c15 0 97 2 182 3 189 3 176 2 200 26 26 26 25 73 -3 105 l-22 26 -215 2 c-118
1 -231 1 -251 -1z"/>
<path d="M858 185 c-44 -25 -57 -94 -27 -144 54 -85 201 -23 178 76 -16 72
-86 103 -151 68z"/>
<path d="M1946 179 c-51 -40 -50 -118 1 -159 59 -47 157 -1 157 73 0 20 -6 47
-13 60 -26 48 -100 62 -145 26z"/>
<path d="M2854 191 c-51 -22 -68 -93 -35 -148 31 -50 116 -57 157 -11 27 29
26 110 -2 138 -23 24 -87 35 -120 21z"/>
</g>
</svg>
